<?xml version="1.0" encoding="UTF-8"?>
<svg width="80" height="40" viewBox="0 0 80 40" xmlns="http://www.w3.org/2000/svg">
  <!-- Car base -->
  <path d="M10 30 L20 15 L60 15 L70 30 Z" fill="#2b2b2b" stroke="#000" stroke-width="2"/>

  <!-- Hood scoop -->
  <path d="M35 15 L45 10 L55 15" fill="none" stroke="#000" stroke-width="2"/>

  <!-- Bat wings -->
  <path d="M0 25 Q20 5 40 25 Q60 5 80 25" fill="#2b2b2b" stroke="#000" stroke-width="2"/>

  <!-- Windows -->
  <path d="M25 17 L55 17 L50 25 L30 25 Z" fill="#6ea4bf" stroke="#000"/>

  <!-- Headlights -->
  <circle cx="20" cy="20" r="3" fill="#ffeb3b"/>
  <circle cx="60" cy="20" r="3" fill="#ffeb3b"/>

  <!-- Wheels -->
  <g id="wheel">
    <circle cx="25" cy="30" r="6" fill="#333"/>
    <circle cx="25" cy="30" r="3" fill="#666"/>
    <line x1="25" y1="27" x2="25" y2="33" stroke="#888" stroke-width="1"/>
    <line x1="22" y1="30" x2="28" y2="30" stroke="#888" stroke-width="1"/>
  </g>
  <use href="#wheel" x="30"/>

  <!-- Rear spoiler -->
  <path d="M15 15 L10 10 L70 10 L65 15" fill="#2b2b2b" stroke="#000" stroke-width="2"/>

  <!-- Neon underglow effect -->
  <rect x="20" y="36" width="40" height="2" fill="#0ff" opacity="0.5">
    <animate attributeName="opacity" values="0.5;0.8;0.5" dur="1s" repeatCount="indefinite"/>
  </rect>
</svg>