<?xml version="1.0" encoding="UTF-8"?>
<svg width="800" height="600" viewBox="0 0 800 600" xmlns="http://www.w3.org/2000/svg">
  <!-- Sky gradient -->
  <defs>
    <linearGradient id="skyGradient" x1="0%" y1="0%" x2="0%" y2="100%">
      <stop offset="0%" style="stop-color:#05071c;stop-opacity:1" />
      <stop offset="50%" style="stop-color:#0d1733;stop-opacity:1" />
      <stop offset="100%" style="stop-color:#1a2342;stop-opacity:1" />
    </linearGradient>

    <linearGradient id="windowGlow" x1="0%" y1="0%" x2="0%" y2="100%">
      <stop offset="0%" style="stop-color:#ffd700;stop-opacity:0.8" />
      <stop offset="100%" style="stop-color:#ff6b00;stop-opacity:0.6" />
    </linearGradient>
  </defs>

  <!-- Background -->
  <rect width="800" height="600" fill="url(#skyGradient)"/>

  <!-- Stars -->
  <g id="stars">
    <circle cx="100" cy="50" r="1" fill="#fff" opacity="0.8">
      <animate attributeName="opacity" values="0.8;0.2;0.8" dur="3s" repeatCount="indefinite"/>
    </circle>
    <!-- Add more stars with different positions and animation timings -->
  </g>

  <!-- Buildings - Back layer -->
  <g fill="#0a1829" stroke="#0c1c2e" stroke-width="1">
    <rect x="50" y="150" width="80" height="450"/>
    <rect x="170" y="100" width="100" height="500"/>
    <rect x="310" y="50" width="90" height="550"/>
    <rect x="440" y="150" width="120" height="450"/>
    <rect x="600" y="80" width="70" height="520"/>
    <rect x="710" y="120" width="90" height="480"/>
  </g>

  <!-- Buildings - Middle layer -->
  <g fill="#0f2744" stroke="#162a47" stroke-width="1">
    <rect x="20" y="200" width="60" height="400"/>
    <rect x="120" y="250" width="80" height="350"/>
    <rect x="240" y="150" width="70" height="450"/>
    <rect x="350" y="220" width="90" height="380"/>
    <rect x="480" y="180" width="60" height="420"/>
    <rect x="580" y="240" width="70" height="360"/>
    <rect x="690" y="190" width="80" height="410"/>
  </g>

  <!-- Windows -->
  <g fill="url(#windowGlow)" opacity="0.5">
    <!-- Randomly positioned windows -->
    <rect x="55" y="220" width="50" height="10"/>
    <rect x="155" y="270" width="70" height="10"/>
    <rect x="275" y="170" width="60" height="10"/>
    <rect x="385" y="240" width="80" height="10"/>
    <rect x="515" y="200" width="50" height="10"/>
    <rect x="615" y="260" width="60" height="10"/>
    <rect x="725" y="210" width="70" height="10"/>
  </g>

  <!-- Foreground buildings silhouette -->
  <path d="M0 400 L50 380 L100 420 L150 390 L200 410 L250 380 L300 400 L350 370 L400 420 L450 380 L500 410 L550 380 L600 420 L650 390 L700 410 L750 380 L800 400 L800 600 L0 600 Z" 
        fill="#051018" opacity="0.8"/>
</svg>